<svg xmlns="http://www.w3.org/2000/svg" version="1.1" xmlns:xlink="http://www.w3.org/1999/xlink" xmlns:svgjs="http://svgjs.dev/svgjs" width="2000" height="2195" viewBox="0 0 2000 2195"><g transform="matrix(1,0,0,1,0.9139408909347821,0.8903049920875219)"><svg viewBox="0 0 225 247" data-background-color="#ffffff" preserveAspectRatio="xMidYMid meet" height="2195" width="2000" xmlns="http://www.w3.org/2000/svg" xmlns:xlink="http://www.w3.org/1999/xlink"><g id="tight-bounds" transform="matrix(1,0,0,1,-0.10242966251681196,-0.09997365579206985)"><svg viewBox="0 0 225.20506115477923 247.2" height="247.2" width="225.20506115477923"><g><svg viewBox="0 0 225.20506115477923 247.2" height="247.2" width="225.20506115477923"><g><svg viewBox="0 0 225.20506115477923 247.2" height="247.2" width="225.20506115477923"><g><svg viewBox="0 0 225.20506115477923 247.2" height="247.2" width="225.20506115477923"><g><svg viewBox="0 0 225.20506115477923 247.2" height="247.2" width="225.20506115477923"><path d="M224.678 53.02C223.619 27.36 220.602 20.227 220.602 20.227 211.338-6.202 199.776-0.506 189.39 3.292 171.053 3.446 152.79 9.091 134.495 12.119 96.094 12.581 57.366 4.986 19.156 23.717 15.567 29.464-3.724 24.846 0.638 56.304 1.782 69.39 5.953 83.913 5.826 95.922 6.398 98.026 7.192 93.202 7.531 96.23 8.717 104.39 10.654 100.541 12.242 105.365 10.029 118.246 11.618 128.971 13.132 140.21 10.464 143.135 7.044 141.749 5.509 151.449 5.35 158.479 4.492 157.145 3.55 156.837 2.862 156.632 1.475 157.402 1.708 159.608 2.502 167.152-0.907 171.514 1.231 178.904-0.24 186.91 2.248 193.838 1.909 202.511 1.867 204.255 2.099 205.744 2.47 206.154 4.111 208.361 1.718 212.672 1.972 217.342 18.806 249.262 37.07 227.195 54.316 241.872 58.795 231.608 55.428 245.516 57.217 243.36 58.615 240.846 59.631 251.263 61.209 245.362 61.452 243.668 61.082 239.665 61.95 240.435 62.405 240.846 62.807 240.743 62.871 238.382 62.966 234.841 62.13 237.048 61.908 235.201 64.311 225.861 63.718 248.081 65.973 247.158 65.867 244.438 65.211 240.538 66.555 241.051 67.889 237.151 67.932 233.918 69.118 242.693 69.16 244.592 69.372 245.926 69.71 246.85 73.416 237.305 77.1 250.237 80.986 245.926 83.368 241.205 85.655 248.492 88.069 246.696 88.916 245.259 89.774 242.693 90.589 247.004 100.573 247.928 111.213 244.079 120.678 247.158 145.971 241.41 173.001 249.518 199.67 241.923 205.959 238.998 212.492 234.841 218.622 231.506 218.622 231.506 223.587 222.371 223.587 181.316S224.646 145.393 224.805 112.703C224.964 80.013 225.705 78.679 224.646 53.02Z" opacity="1" fill="#ff5858" data-fill-palette-color="tertiary"></path><g transform="matrix(1,0,0,1,55.76832,26.230666666666668)"><svg width="113.66842115477922" viewBox="3.299999952316284 -34 20.05000114440918 34.349998474121094" height="194.73866666666666" data-palette-color="#ffffff"><path d="M23.35-8.95L23.35-8.95Q23.35-4.5 20.3-2.08 17.25 0.35 12.45 0.35L12.45 0.35Q7.15 0.35 3.45-1.8L3.45-1.8 3.45-6.15Q7.1-3.4 12.35-3.4L12.35-3.4Q15.5-3.4 17.3-4.8 19.1-6.2 19.1-8.85L19.1-8.85Q19.1-9.95 18.68-10.83 18.25-11.7 17.28-12.43 16.3-13.15 15.43-13.63 14.55-14.1 13.05-14.8L13.05-14.8Q12.75-14.95 12.15-15.2L12.15-15.2Q10-16.15 8.88-16.75 7.75-17.35 6.23-18.53 4.7-19.7 4-21.25 3.3-22.8 3.3-24.85L3.3-24.85Q3.3-29.15 6.38-31.58 9.45-34 14.1-34L14.1-34Q18.45-34 21.5-32.45L21.5-32.45 21.5-28.2Q18.45-30.2 14.2-30.2L14.2-30.2Q11.15-30.2 9.35-28.78 7.55-27.35 7.55-25.05L7.55-25.05Q7.55-23.85 8.03-22.9 8.5-21.95 9.7-21.13 10.9-20.3 11.75-19.88 12.6-19.45 14.4-18.65L14.4-18.65Q16.1-17.9 17-17.48 17.9-17.05 19.33-16.13 20.75-15.2 21.48-14.33 22.2-13.45 22.78-12.03 23.35-10.6 23.35-8.95Z" opacity="1" transform="matrix(1,0,0,1,0,0)" fill="#ffffff" class="undefined-text-0" data-fill-palette-color="quaternary" id="text-0"></path></svg></g></svg></g></svg></g></svg></g><g></g></svg></g><defs></defs></svg><rect width="225.20506115477923" height="247.2" fill="none" stroke="none" visibility="hidden"></rect></g></svg></g></svg>